<svg viewBox="0 0 107 107">
	<g fill="#000" stroke="#000" stroke-width="8" style="fill: var(--primary-color, #000); stroke: var(--primary-color, #000)">
		<path d="M63.721,86.367c-0.047,7.532 -6.177,13.633 -13.721,13.633c-7.573,0 -13.722,-6.148 -13.722,-13.722l27.444,0l-0.001,0.089Z" stroke="none" />
		<path d="M41.568,11.797c0.029,-6.518 0.234,-11.797 8.432,-11.797c8.198,0 8.432,5.321 8.432,11.874l-16.864,0l0,-0.077Z" stroke="none" />
		<path d="M25.142,67.686l0.051,-0.051l0,-27.512l0,-3.442c0,-13.701 11.106,-24.807 24.807,-24.807c0,0 0,0 0,0c13.701,0 24.807,11.106 24.807,24.807l0,30.954l0.051,0.051l11.429,6.934l0,11.658l-72.574,0l0,-11.658l11.429,-6.934Z" fill="none" />
	</g>
</svg>
