<svg viewBox="0 0 107 107">
	<g stroke-width="10" stroke="#000" style="fill: var(--primary-color, none); stroke: var(--primary-color, #000)">
		<path d="M59.595,11.469c0,-6.24 0,-11.299 -6.095,-11.299c-6.094,0 -6.094,5.059 -6.094,11.299l12.189,0Z" stroke="none" />
		<path d="M10.272,89.061l8.304,-15.586c0.312,-0.447 0.241,-24.673 0.241,-24.673c0,-20.619 14.064,-37.333 34.682,-37.333c20.62,0 34.683,16.714 34.683,37.333c0,0 -0.07,24.226 0.242,24.673l8.304,15.586c1.411,2.201 -0.17,5.094 -2.786,5.094l-80.884,0c-2.616,0 -4.197,-2.893 -2.786,-5.094Z" fill="none" />
		<path d="M39.502,95.524c1.747,6.526 7.346,11.306 13.998,11.306c6.653,0 12.252,-4.78 13.998,-11.306l-27.996,0Z" stroke="none" />
	</g>
</svg>
