<svg viewBox="0 0 100 100">
	<g id="book">
		<g fill="none" stroke="#000" style="fill: var(--primary-color, #000); stroke: var(--primary-color, #000)">
			<path d="M81.938,77.988c0,0 -0.162,2.338 -3.627,2.338c0,0 0,0 0,0c-3.465,0 -59.704,0 -59.704,0" stroke="none" />
			<path d="M81.938,80.823c0,0 -0.162,2.338 -3.627,2.338c0,0 0,0 0,0c-3.465,0 -60.505,0 -60.505,0" style="fill:none;stroke:#b3b3b3;stroke-width:1px;" />
			<path d="M81.938,83.657c0,0 -0.162,2.339 -3.627,2.339c0,0 0,0 0,0c-3.465,0 -59.704,0 -59.704,0" style="fill:none;stroke:#b3b3b3;stroke-width:1px;" />
			<path id="cover" d="M17.806,83.214c0,0 0,-60.354 0,-76.626c0,-2.209 1.791,-4 4,-4c11.51,0 44.622,0 56.132,0c2.209,0 4,1.791 4,4c0,12.661 0,51.84 0,65.796c0,1.326 -0.527,2.598 -1.464,3.536c-0.938,0.937 -2.21,1.464 -3.536,1.464c-11.753,0 -41.078,0 -53.466,0c-1.503,0 -2.944,0.597 -4.007,1.66c-1.062,1.062 -1.659,2.503 -1.659,4.006c0,0.105 0,0.164 0,0.164Z" style="fill: var(--secondary-color, #000)" />
			<path d="M77.976,0.533c3.146,0.117 5.898,2.789 6.018,6.017c0.272,21.955 0.409,43.917 0,65.869c-0.113,3.638 -3.276,6.904 -7.021,7.021c-17.825,0.332 -35.666,-0.559 -53.486,0.005c-1.918,0.085 -3.599,1.765 -3.623,3.719c-0.021,1.696 -3.923,3.229 -4.116,0.05l0,-76.524c0.041,-3.201 2.745,-6.033 6.014,-6.157c18.737,-0.237 37.478,-0.233 56.214,0Zm-56.042,4.113c-1.109,0.014 -2.057,0.954 -2.071,2.071l0,69.569c0.088,-0.048 0.176,-0.094 0.265,-0.138c1.062,-0.52 2.227,-0.798 3.405,-0.821c17.792,-0.113 35.593,0.549 53.376,-0.002c1.54,-0.067 2.901,-1.397 2.97,-2.97c0.678,-21.89 0.273,-43.803 0.001,-65.703c-0.039,-1.053 -0.945,-1.966 -2.006,-2.005c-18.645,-0.231 -37.293,-0.001 -55.94,-0.001Z" style="fill-rule:nonzero;" stroke="none" />
			<path d="M19.864,83.307c0.059,1.896 1.73,3.575 3.657,3.611c3.49,0.022 7.33,-0.664 8.287,1.058c0.672,1.207 -0.189,2.945 -1.698,3.055c-4.675,0.113 -9.675,0.449 -12.403,-2.641c-1.246,-1.41 -1.947,-3.277 -1.959,-5.169c0,-0.137 0.013,-0.27 0.039,-0.402c0.044,-0.228 0.128,-0.448 0.245,-0.648c0.101,-0.172 0.227,-0.328 0.373,-0.464c1.127,-1.048 3.374,-0.291 3.456,1.407c0.003,0.064 0.002,0.095 0.003,0.193Z" style="fill-rule:nonzero;" stroke="none" />
			<path d="M82.186,68.285c1.004,0.163 1.769,1.02 1.81,2.042l0,15.575c-0.034,2.698 -2.334,5.096 -5.131,5.131l-31.898,0c-2.15,-0.087 -2.827,-4.001 0,-4.115c10.647,0 21.301,0.402 31.94,-0.002c0.651,-0.041 0.974,-1.04 0.974,-1.04l0.006,-15.715c0.137,-1.124 1.128,-1.971 2.299,-1.876Z" style="fill-rule:nonzero;" stroke="none" />
			<rect x="25.664" y="81.96" width="25.649" height="2.924" stroke="none" />
			<path id="bookmark" d="M43.398,81.96l-9.818,0l0,17.683l4.909,-3.587l4.909,3.587l0,-17.683Z" style="fill: var(--tertiary-color, #e61a1a)" stroke="none" />
			<path id="mark" d="M47.185,43.031c0,0 10.151,-10.673 13.858,-14.571c0.744,-0.782 1.974,-0.833 2.78,-0.114c0.614,0.548 1.333,1.188 1.961,1.748c0.409,0.365 0.651,0.883 0.668,1.432c0.017,0.548 -0.193,1.08 -0.58,1.47c-4.662,4.697 -18.687,18.828 -18.687,18.828c0,0 -8.042,-7.074 -11.633,-10.232c-0.43,-0.378 -0.677,-0.922 -0.679,-1.495c-0.002,-0.572 0.242,-1.118 0.669,-1.499c0.643,-0.574 1.366,-1.218 1.971,-1.758c0.756,-0.673 1.896,-0.676 2.655,-0.006c2.356,2.081 7.017,6.197 7.017,6.197Z" stroke="none" fill="#fff" />
		</g>
	</g>
</svg>
