<svg width="100%" height="100%" viewBox="0 0 100 100">
	<g fill="none" stroke="#000" stroke-width="8" style="fill: var(--secondary-color, none); stroke: var(--primary-color, #000)">
		<rect x="8.184" y="28.838" width="83.632" height="61.226" />
		<rect x="3.837" y="9.936" width="92.326" height="18.903" />
		<path d="M68.054,44.993c0,-2.761 -2.238,-5 -5,-5c-6.887,0 -19.221,0 -26.108,0c-2.762,0 -5,2.239 -5,5c0,0.11 0,0.22 0,0.33c0,2.761 2.238,5 5,5c6.887,0 19.221,0 26.108,0c2.762,0 5,-2.239 5,-5c0,-0.11 0,-0.22 0,-0.33Z" />
	</g>
</svg>
