<svg viewBox="0 0 100 100" xmlns="http://www.w3.org/2000/svg" xmlns:serif="http://www.serif.com/" fill-rule="evenodd" clip-rule="evenodd" stroke-linecap="round" stroke-linejoin="round" stroke-miterlimit="1.5">
	<g fill="none" stroke="#000" style="stroke: var(--primary-color, #000)">
		<path d="M93.25 24.735l.445.05.441.083.434.116.423.149.412.179.396.21.38.238.361.267.34.292.318.318.292.34.267.361.238.38.21.396.179.412.149.423.116.434.083.44.05.446.017.449v52.937l-.001.122-.002.14-.005.139-.006.139-.008.14-.009.138-.012.138-.013.138-.015.138-.016.137-.019.137-.02.136-.021.136-.024.136-.025.135-.026.134-.028.134-.03.133-.032.133-.033.132-.035.132-.036.13-.038.131-.039.13-.041.128-.043.128-.044.128-.051.144-.089.234-.102.248-.107.245-.113.242-.118.238-.124.235-.13.231-.134.228-.14.224-.145.22-.15.217-.155.212-.16.209-.165.204-.169.2-.174.196-.178.192-.183.188-.188.183-.192.178-.196.174-.2.17-.204.164-.209.16-.212.155-.217.15-.22.145-.224.14-.228.135-.231.129-.235.124-.239.118-.241.113-.245.107-.248.102-.234.089-.144.051-.128.044-.128.043-.129.041-.13.039-.13.038-.131.036-.131.035-.132.033-.133.032-.133.03-.134.028-.134.027-.136.025-.135.023-.136.021-.136.02-.137.019-.137.016-.138.015-.138.013-.138.012-.139.009-.139.008-.139.006-.14.005-.14.003H12.015l-.14-.003-.14-.005-.139-.006-.139-.008-.139-.009-.138-.012-.138-.013-.138-.015-.137-.016-.137-.019-.136-.02-.136-.021-.136-.023-.135-.025-.134-.027-.134-.028-.133-.03-.133-.032-.132-.033-.131-.035-.131-.036-.13-.038-.13-.039-.129-.041-.128-.043-.128-.044-.144-.051-.234-.089-.248-.102-.245-.107-.241-.113-.239-.118-.235-.124-.231-.129-.228-.135-.224-.14-.22-.145-.217-.15-.212-.155-.209-.16-.204-.164-.2-.17-.196-.174-.192-.178-.188-.183-.183-.188-.178-.192-.174-.196-.17-.2-.164-.204-.16-.209-.155-.212-.15-.217-.145-.22-.14-.224-.134-.228-.13-.231-.124-.235-.118-.238-.113-.242-.107-.245-.102-.248-.089-.234-.051-.144-.044-.128-.043-.128-.041-.129-.039-.129-.038-.131-.036-.13-.035-.132-.033-.132-.032-.133-.03-.133-.028-.134-.026-.134-.025-.135-.024-.136-.021-.136-.02-.136-.019-.137-.016-.137-.015-.138-.013-.138-.012-.138-.009-.139-.008-.139-.006-.139-.005-.14-.002-.14-.001-.121V30.718l.017-.449.05-.446.083-.44.116-.434.149-.423.179-.412.21-.396.238-.38.267-.361.292-.34.318-.318.34-.292.361-.267.38-.238.396-.21.412-.179.423-.149.434-.116.441-.083.445-.05.449-.017h85.602l.449.017zM7.199 30.718V83.7l.001.064.002.064.003.063.004.064.004.063.005.063.006.062.007.063.008.062.008.062.009.061.01.062.01.061.011.061.012.06.013.061.014.06.014.059.015.06.015.059.017.059.017.059.018.058.018.058.019.058.02.057.021.057.043.114.045.111.049.111.051.109.053.108.056.106.058.104.061.103.064.102.065.099.068.098.07.097.073.094.074.093.077.091.079.089.081.087.083.085.085.083.087.081.089.079.091.077.093.074.094.073.097.07.098.068.1.066.101.063.103.061.104.058.106.056.108.054.109.051.111.048.111.046.114.043.057.02.057.02.058.019.058.018.058.018.059.017.059.017.059.015.06.015.059.014.061.014.06.013.061.012.06.011.062.01.061.01.062.009.061.008.063.008.062.007.063.006.062.005.063.004.064.004.063.003.064.002.064.001H87.909l.064-.001.064-.002.063-.003.064-.004.063-.004.062-.005.063-.006.062-.007.063-.008.061-.008.062-.009.061-.01.062-.01.06-.011.061-.012.06-.013.061-.014.059-.014.06-.015.059-.015.059-.017.059-.017.058-.018.058-.018.058-.019.057-.02.057-.02.114-.043.111-.046.111-.048.109-.051.108-.054.106-.056.104-.058.103-.061.101-.063.1-.066.098-.068.097-.07.094-.073.093-.074.091-.077.089-.079.087-.081.085-.083.083-.085.081-.087.079-.089.077-.091.074-.093.073-.094.07-.097.068-.098.065-.099.064-.102.061-.103.058-.104.056-.106.053-.108.051-.109.049-.111.045-.111.043-.114.021-.057.02-.057.019-.058.018-.058.018-.058.017-.059.017-.059.015-.059.015-.06.014-.059.014-.06.013-.061.012-.06.011-.061.01-.061.01-.062.009-.061.008-.062.008-.062.007-.063.006-.062.005-.063.004-.063.004-.064.003-.063.002-.064.001-.064V30.718H7.199z" stroke="none" fill="#000" style="fill: var(--primary-color, #000)" />
		<path d="M7.199 30.718v12.87a9.997 9.997 0 0 0 10 10h65.602a9.997 9.997 0 0 0 10-10v-12.87" stroke-width="8" />
		<path d="M32.022 30.718V15.396a3.991 3.991 0 0 1 3.988-3.988h27.98a3.989 3.989 0 0 1 3.988 3.988v15.322" stroke-width="6" stroke-linecap="butt" />
		<path d="M20.45 37.839h6.424v8.994H20.45zM74.411 37.839h6.424v8.994h-6.424z" stroke="none" fill="#000" style="fill: var(--primary-color, #000)" />
	</g>
</svg>
