<svg viewBox="0 0 100 100" stroke-width="8" fill-rule="evenodd" clip-rule="even-odd">
	<path d="M92.197,38.178c2.07,0 4.054,0.886 5.518,2.463c1.463,1.577 2.285,3.716 2.285,5.946c0,2.217 0,4.609 0,6.826c0,2.23 -0.822,4.369 -2.285,5.946c-1.464,1.577 -3.448,2.463 -5.518,2.463c-0.002,0 -0.004,0 -0.006,0c-4.783,0 -9.204,2.751 -11.595,7.215c-2.392,4.465 -2.392,9.966 0,14.431c0.001,0.002 0.002,0.003 0.003,0.005c1.034,1.932 1.315,4.227 0.779,6.381c-0.535,2.154 -1.843,3.991 -3.635,5.106c-1.782,1.109 -3.704,2.305 -5.486,3.413c-1.792,1.115 -3.922,1.418 -5.92,0.84c-1.999,-0.577 -3.704,-1.986 -4.738,-3.918c-0.001,-0.001 -0.002,-0.003 -0.003,-0.005c-2.392,-4.465 -6.812,-7.215 -11.596,-7.215c-4.784,0 -9.204,2.75 -11.596,7.215c-0.001,0.002 -0.002,0.004 -0.003,0.005c-1.034,1.932 -2.739,3.341 -4.738,3.918c-1.998,0.578 -4.128,0.275 -5.92,-0.84c-1.782,-1.108 -3.704,-2.304 -5.486,-3.413c-1.792,-1.115 -3.1,-2.952 -3.635,-5.106c-0.536,-2.154 -0.255,-4.449 0.779,-6.381c0.001,-0.002 0.002,-0.003 0.003,-0.005c2.392,-4.465 2.392,-9.966 0,-14.431c-2.391,-4.464 -6.812,-7.215 -11.595,-7.215c-0.002,0 -0.004,0 -0.006,0c-2.07,0 -4.054,-0.886 -5.518,-2.463c-1.463,-1.577 -2.285,-3.716 -2.285,-5.946c0,-2.217 0,-4.609 0,-6.826c0,-2.23 0.822,-4.369 2.285,-5.946c1.464,-1.577 3.448,-2.463 5.518,-2.463c0.002,0 0.004,0 0.006,0c4.783,0 9.204,-2.751 11.595,-7.215c2.392,-4.465 2.392,-9.966 0,-14.431c-0.001,-0.002 -0.002,-0.003 -0.003,-0.005c-1.034,-1.932 -1.315,-4.227 -0.779,-6.381c0.535,-2.154 1.843,-3.991 3.635,-5.106c1.782,-1.109 3.704,-2.305 5.486,-3.413c1.792,-1.115 3.922,-1.418 5.92,-0.84c1.999,0.577 3.704,1.986 4.738,3.918c0.001,0.001 0.002,0.003 0.003,0.005c2.392,4.465 6.812,7.215 11.596,7.215c4.784,0 9.204,-2.75 11.596,-7.215c0.001,-0.002 0.002,-0.004 0.003,-0.005c1.034,-1.932 2.739,-3.341 4.738,-3.918c1.998,-0.578 4.128,-0.275 5.92,0.84c1.782,1.108 3.704,2.304 5.486,3.413c1.792,1.115 3.1,2.952 3.635,5.106c0.536,2.154 0.255,4.449 -0.779,6.381c-0.001,0.002 -0.002,0.003 -0.003,0.005c-2.392,4.465 -2.392,9.966 0,14.431c2.391,4.464 6.812,7.215 11.595,7.215c0.002,0 0.004,0 0.006,0Zm-42.399,-3.079c7.631,0 13.826,6.677 13.826,14.901c0,8.224 -6.195,14.901 -13.826,14.901c-7.631,0 -13.826,-6.677 -13.826,-14.901c0,-8.224 6.195,-14.901 13.826,-14.901Z" style="stroke: none; fill: var(--primary-color, none)" />
</svg>
