<svg viewBox="0 0 100 100" version="1.1" xmlns="http://www.w3.org/2000/svg" xmlns:xlink="http://www.w3.org/1999/xlink" xml:space="preserve" style="fill-rule:evenodd;clip-rule:evenodd;stroke-linecap:round;stroke-linejoin:round;stroke-miterlimit:1.5;">
	<path d="M78.507,33.321c0,-2.69 -1.14,-5.254 -3.137,-7.056c-5.469,-4.933 -16.687,-15.053 -22.187,-20.015c-1.809,-1.631 -4.557,-1.631 -6.366,0c-5.5,4.962 -16.718,15.082 -22.187,20.015c-1.997,1.802 -3.137,4.366 -3.137,7.056c0,10.431 0,37.61 0,52.15c0,5.248 4.254,9.503 9.502,9.503c10.546,0 27.464,0 38.01,0c5.248,0 9.502,-4.255 9.502,-9.503c0,-14.54 0,-41.719 0,-52.15Z" fill="none" stroke="#000" stroke-width="8" style="stroke: var(--primary-color, #000)" />
	<circle cx="50" cy="33" r="8" fill="#cacaff" style="fill: var(--primary-color, #000)" />
</svg>
